#!OML:ASF E:/inclinewalkrobotboard/Project1/Captureday1/Session1/subject1.ASF
:FULLY-SPECIFIED
:DEGREES
26
root 0 0 0 -6.227165402223076 1.8167291959492324 -0.8711011560549209
lowerback 2.878031067692624 -1.823093945466244 -2.130317392094997
upperback -0.9235023468391739 -2.4110660216750355 0.37000373771524886
thorax -2.4132594722000555 -1.173383594881698 1.9827746834008229
lowerneck -12.926465306572219 0.5280574634895387 -6.839393457164222
upperneck 17.27563292593092 1.0062064563000517 0.9004696426526806
head 7.635227213391542 0.5297146413766036 1.3869026609709725
rclavicle -8.364918816168209E-15 1.2570961414114415E-16
rhumerus 1.7032003384722922 -13.727674429501805 -66.87670196429852
rradius 20.77897582978055
rwrist 56.03345195870712
rhand -7.941782108789534 21.575679686057544
rfingers 7.125019999999908
rthumb 17.973011859066496 -8.105192227614264
lclavicle 8.200230676136134E-16 7.5151223534967E-15
lhumerus -23.244521074177467 1.7646494908010588 78.84654501407128
lradius 39.03707049906177
lwrist -36.51171212840089
lhand -13.362704698523904 14.777253733735924
lfingers 7.042891431619669
lthumb 12.44630901565629 72.19764218243384
rfemur -7.33012785290034 7.384753389199796 33.128999244180875
rtibia 24.989820241674824
rfoot -10.635324605899166 -5.197774469349986
rtoes 15.10863387732997
lfemur 14.425639458588448 -3.0841302874806846 -30.014644869842215
ltibia 19.672381903972873
lfoot -15.72167390539079 -2.598182365892926
ltoes -4.450903901317528
27
root 0 0 0 -5.9705950666261245 1.5842496494483989 -1.3007326827058083
lowerback 2.5476959310705745 -1.8631518874615205 -1.835352021476734
upperback -1.0750982180419428 -2.4324603407260423 0.4060254219474987
thorax -2.3902798666954252 -1.1814740935809422 1.8649021701636752
lowerneck -12.849065347754241 0.5166267943658598 -6.805634320028646
upperneck 15.726241382428276 1.0152641128899784 0.648220757907179
head 7.151255115456273 0.5358233290263352 1.2954652883494933
rclavicle -8.56966246895329E-15 1.2528279574409662E-16
rhumerus 1.9888576788797627 -13.809259176402337 -66.75141817874795
rradius 20.649158732888083
rwrist 56.14320982229768
rhand -7.962459694947315 21.57517379204293
rfingers 7.125019999999909
rthumb 17.952927397686633 -8.110409556207376
lclavicle 3.6835033064918805E-17 7.389884846691707E-15
lhumerus -23.68904620782116 1.8874093264060008 78.94514745665737
lradius 38.021300140139886
lwrist -37.118267917811906
lhand -12.915097662861193 14.650245749784558
lfingers 7.0422496496432
lthumb 12.873449751102912 71.25301532613027
rfemur -6.005922987942435 7.628756830765022 33.74865129917777
rtibia 24.476089148772466
rfoot -12.49151592488624 -5.493206441392502
rtoes 14.651583863254087
lfemur 15.241937026617167 -3.247627971969896 -29.732040632355236
ltibia 19.54820469452793
lfoot -14.864168265561652 -3.3425496779679307
ltoes -5.934315446989608
28
root 0 0 0 -5.702936529550364 1.359983856816612 -1.6465078537028712
lowerback 2.2721243203937993 -1.887320742496922 -1.5569326190435715
upperback -1.1996221557217326 -2.4348437809741705 0.434801664859079
thorax -2.3713540711573917 -1.1805326081274095 1.7456571720229912
lowerneck -12.801528494909341 0.49281731696638476 -6.754761483159831
upperneck 14.273752522449454 1.0043732458853194 0.4077792448634181
head 6.705166231706448 0.5353304860824313 1.2039439218004313
rclavicle -8.778395847798554E-15 1.197687686155736E-16
rhumerus 2.255588249726154 -13.845687173824919 -66.65563235206045
rradius 20.487985591867755
rwrist 56.271976964442544
rhand -7.969695776189294 21.574000827823575
rfingers 7.1250199999999095
rthumb 17.94579017434255 -8.11593970113195
lclavicle -7.384661447925184E-16 7.20227514871595E-15
lhumerus -24.094422160470046 2.0218586870144613 79.00881017510466
lradius 36.90114554405311
lwrist -37.706936914766644
lhand -12.459463523768369 14.548741818787654
lfingers 7.042327663056649
lthumb 13.310696531968446 70.05528013497765
rfemur -4.8445951347141705 7.801369321899701 34.27765872719928
rtibia 24.11901260453762
rfoot -14.02096614748481 -5.711946299488315
rtoes 14.16443381552598
lfemur 16.13682882770999 -3.4404866191865224 -29.36144758126259
ltibia 19.576912743382266
lfoot -13.720450738834483 -4.27599892559318
ltoes -7.62991887979217
29
root 0 0 0 -5.292239823955255 1.1152566111963935 -1.942196448773366
lowerback 1.9168460039994493 -1.8932560220618302 -1.174237233041493
upperback -1.3410197471669085 -2.399640370794879 0.4609546203160838
thorax -2.331773227421499 -1.1608751389731762 1.5633972369713918
lowerneck -12.764405328574135 0.45080402240958906 -6.639936565895556
upperneck 12.473010550933804 0.9680629438515664 0.0718915683268877
head 6.160146602324348 0.5294316146379385 1.0690144947911362
rclavicle -9.095179937600532E-15 1.1267645997141393E-16
rhumerus 2.566156844445714 -13.801622390302642 -66.60551208517985
rradius 20.203841793506292
rwrist 56.500974964376255
rhand -7.954893733548506 21.577353641331317
rfingers 7.12501999999991
rthumb 17.959989730822087 -8.11775146377925
lclavicle -1.871763296351248E-15 6.861209240342613E-15
lhumerus -24.699298676697843 2.212499542821355 79.10052381280913
lradius 35.12444501222599
lwrist -38.52260545606457
lhand -11.804232614139996 14.44310408376462
lfingers 7.043857166565802
lthumb 13.944926444439483 67.78406430112732
rfemur -3.3960757848186987 7.951934554740699 34.90410273476404
rtibia 23.87471955353399
rfoot -15.610899603166153 -5.876038531004376
rtoes 13.545136663986929
lfemur 17.642767815065255 -3.77095501335764 -28.577724939676738
ltibia 20.118329943414924
lfoot -11.323189833830579 -6.140797648682561
ltoes -10.698959631036143
30
root 0 0 0 -5.051475716715784 1.100108406606875 -1.9934459122979895
lowerback 1.7217844294079274 -1.8834504266434884 -0.9604015773064993
upperback -1.40139258619327 -2.3604100653558127 0.46812926598205185
thorax -2.294372251918115 -1.1406082101458546 1.4515040637646917
lowerneck -12.733192964470717 0.431454689806944 -6.54835427061828
upperneck 11.645733932392503 0.9479525324293014 -0.12201153050340174
head 5.908755615905712 0.5276027042621543 0.9890034651031994
rclavicle -9.316961697922752E-15 9.60031073355665E-17
rhumerus 2.7201507897652055 -13.716477751332027 -66.62539419087533
rradius 20.00580514098158
rwrist 56.66197010492232
rhand -7.9285856047508965 21.584925401651113
rfingers 7.125019999999911
rthumb 17.985343024255158 -8.11257510036334
lclavicle -2.6038304332793672E-15 6.514366460465232E-15
lhumerus -25.185638775907982 2.275324173373747 79.21021207570853
lradius 33.82766573704247
lwrist -39.01169129955761
lhand -11.33939221511646 14.408471470576067
lfingers 7.045319195795172
lthumb 14.396733247038156 65.67207881167528
rfemur -2.632605473701318 8.001990157298122 35.20842354545804
rtibia 23.850327079340776
rfoot -16.210966540728425 -5.883992062615557
rtoes 13.242211061341036
lfemur 18.62156258048973 -3.940978427812767 -27.872718127155814
ltibia 21.23462519014109
lfoot -9.28960621197622 -7.665942263696634
ltoes -12.92023645501262
31
root 0 0 0 -4.827954106728441 1.3125407703798153 -1.9543491209648791
lowerback 1.5731617804484337 -1.870547520174684 -0.7709160698125367
upperback -1.4296336882120433 -2.3189195388146135 0.47415381767323506
thorax -2.2488216290757332 -1.119574454723565 1.350678578491871
lowerneck -12.661485394518493 0.4325391555067415 -6.444839465654072
upperneck 11.09597322327669 0.9534540417291222 -0.31040937466583074
head 5.7314753197257735 0.5360269546222325 0.9132249040548266
rclavicle -9.529106983506677E-15 8.920615586598224E-17
rhumerus 2.8129796757182817 -13.583556101151471 -66.67231177283212
rradius 19.80767029129506
rwrist 56.810048500629236
rhand -7.887840872866985 21.589592604821846
rfingers 7.125019999999911
rthumb 18.024657043458625 -8.109357372036015
lclavicle -3.3471840697832366E-15 6.1367480171728185E-15
lhumerus -25.71357972359238 2.3145835671468653 79.34015818392668
lradius 32.51743748008349
lwrist -39.42811926645561
lhand -10.879765435983101 14.401905795354097
lfingers 7.0472880321565405
lthumb 14.845902601997635 63.18359838044779
rfemur -2.0463689925128747 8.031669272715313 35.42761653185261
rtibia 23.909694648203605
rfoot -16.532811774934743 -5.847951143667676
rtoes 13.079394589729999
lfemur 19.343456734676003 -3.9397702239650814 -27.00212175041443
ltibia 23.580019172514394
lfoot -7.031300942759571 -9.289400173605461
ltoes -14.868813362601022
